<svg xmlns="http://www.w3.org/2000/svg" width="17" height="22.194" viewBox="0 0 17 22.194"><defs><style>.a{fill:#4b4b4b;}</style></defs><path class="a" d="M17,22.193H0V0H10.388V6.61H17V22.192ZM4.027,17a.25.25,0,0,0-.249.25v.917a.25.25,0,0,0,.249.249h8.945a.25.25,0,0,0,.249-.249v-.917a.25.25,0,0,0-.249-.25Zm0-3.777a.25.25,0,0,0-.249.25v.916a.25.25,0,0,0,.249.25h8.945a.25.25,0,0,0,.249-.25v-.916a.25.25,0,0,0-.249-.25Zm0-3.778a.25.25,0,0,0-.249.25v.917a.25.25,0,0,0,.249.249h8.945a.25.25,0,0,0,.249-.249V9.693a.25.25,0,0,0-.249-.25Zm0-4.25a.25.25,0,0,0-.249.25v.916a.25.25,0,0,0,.249.25H7.3a.25.25,0,0,0,.25-.25V5.443a.25.25,0,0,0-.25-.25Z" transform="translate(0.001 0.001)"/><path class="a" d="M4.722,4.722H4.674L0,.047V0H4.722V4.722Z" transform="translate(17 4.722) rotate(180)"/></svg>