<svg xmlns="http://www.w3.org/2000/svg" width="24" height="16.363" viewBox="0 0 24 16.363"><defs><style>.eye-blue{fill:#006ab3;}.b{fill:#fff;}</style></defs><g transform="translate(-166.906 -267.759)"><path class="eye-blue" d="M178.906,267.759a12.851,12.851,0,0,0-12,8.181,12.891,12.891,0,0,0,24,0A12.853,12.853,0,0,0,178.906,267.759Zm0,13.636a5.454,5.454,0,1,1,5.454-5.455A5.4,5.4,0,0,1,178.906,281.395Zm0-8.727a3.273,3.273,0,1,0,3.272,3.272A3.214,3.214,0,0,0,178.906,272.668Z"/></g><circle class="b" cx="1.5" cy="1.5" r="1.5" transform="translate(9 5)"/></svg>
