<svg xmlns="http://www.w3.org/2000/svg" width="84.17" height="76.413" viewBox="0 0 100.17 76.413"><defs><style>.a{fill:#b4b4b4;}.b{fill:#fff;}.c{fill:#4b4b4b;}</style></defs><g transform="translate(-632 -335)"><path class="a" d="M62.94,78.386V33H0V78.386H23.43l-1.5,5.753H18.071v3.688h26.8V84.139H41.009l-1.5-5.753Zm-3.688-41.7V65.549H3.688V36.688ZM3.688,69.237H59.252V74.7H3.688Zm33.51,14.9H25.742l1.5-5.753H35.7Z" transform="translate(653.23 323.587)"/><g transform="translate(687.981 363.749)"><path class="a" d="M295.991,89.323h3.269V87.616h2.651V84.348H299.26V82.641h-3.269v1.707H284.333v3.269h11.658Z" transform="translate(-284.333 -82.641)"/><path class="a" d="M295.991,89.323h3.269V87.616h2.651V84.348H299.26V82.641h-3.269v1.707H284.333v3.269h11.658Z" transform="translate(-284.333 -68.89)"/><path class="a" d="M288.219,156.95h3.269v-1.707h10.423v-3.269H291.488v-1.707h-3.269v1.707h-3.886v3.269h3.886Z" transform="translate(-284.333 -143.116)"/></g><circle class="b" cx="23" cy="23" r="23" transform="translate(632 335)"/><g transform="translate(640 317.583)"><path class="c" d="M29.113,39.521Q26.4,32.774,14.464,32.774h-3.75V28.489a1.065,1.065,0,0,0-1.825-.753L.318,36.306a1.051,1.051,0,0,0,0,1.507l8.571,8.572a1.071,1.071,0,0,0,1.825-.753V41.345h3.75q1.64,0,2.938.1a21.184,21.184,0,0,1,2.578.36,9.569,9.569,0,0,1,2.227.712,7.882,7.882,0,0,1,1.766,1.163,5.833,5.833,0,0,1,1.34,1.691,9.11,9.11,0,0,1,.812,2.318,14.26,14.26,0,0,1,.293,3.03q0,.921-.084,2.059a3.429,3.429,0,0,1-.042.393,3.446,3.446,0,0,0-.042.443.625.625,0,0,0,.142.418.49.49,0,0,0,.394.167.572.572,0,0,0,.469-.285,1.914,1.914,0,0,0,.218-.368q.1-.217.226-.5c.084-.19.142-.323.176-.4A20.1,20.1,0,0,0,30,45.1,15.242,15.242,0,0,0,29.113,39.521Z" transform="translate(0 0)"/></g></g></svg>