<svg xmlns="http://www.w3.org/2000/svg" xmlns:xlink="http://www.w3.org/1999/xlink" width="14.063" height="16" viewBox="0 0 14.063 16"><defs><style>.a{fill:#b4b4b4;}.b{clip-path:url(#a);}</style><clipPath id="a"><path class="a" d="M0-512H14.063v16H0Z" transform="translate(0 512)"/></clipPath></defs><g class="b"><path class="a" d="M-406.875-101.719a.469.469,0,0,1-.469.469h-11.25a.469.469,0,0,1-.469-.469.469.469,0,0,1,.469-.469h11.25a.469.469,0,0,1,.469.469m-1.8,11.351a.472.472,0,0,1-.467.43h-7.65a.471.471,0,0,1-.467-.43l-.824-9.945h10.232Zm-6.636-13.226a.469.469,0,0,1,.469-.469h3.75a.469.469,0,0,1,.469.469v.469h-4.687Zm4.219-1.406h-3.75a1.408,1.408,0,0,0-1.406,1.406v.469h-2.344A1.408,1.408,0,0,0-420-101.719a1.409,1.409,0,0,0,.969,1.336l.836,10.093a1.415,1.415,0,0,0,1.4,1.29h7.65a1.415,1.415,0,0,0,1.4-1.29l.836-10.093a1.408,1.408,0,0,0,.969-1.336,1.408,1.408,0,0,0-1.406-1.406h-2.344v-.469A1.408,1.408,0,0,0-411.094-105" transform="translate(420 105)"/><g transform="translate(3.75 5.625)"><path class="a" d="M-14.56-249.869a.469.469,0,0,0,.467.44.469.469,0,0,0,.468-.5l-.469-7.563a.469.469,0,0,0-.5-.439.469.469,0,0,0-.439.5Z" transform="translate(15.029 257.93)"/></g><g transform="translate(6.563 5.625)"><path class="a" d="M-14.531-263.5a.469.469,0,0,0,.469-.469v-7.563a.469.469,0,0,0-.469-.469.469.469,0,0,0-.469.469v7.563a.469.469,0,0,0,.469.469" transform="translate(15 272)"/></g><g transform="translate(8.906 5.625)"><path class="a" d="M-13.633-263.472a.469.469,0,0,0,.5-.439l.469-7.562a.469.469,0,0,0-.439-.5.469.469,0,0,0-.5.439l-.469,7.563a.469.469,0,0,0,.439.5" transform="translate(14.073 271.971)"/></g></g></svg>