<svg xmlns="http://www.w3.org/2000/svg" width="47.071" height="39.954" viewBox="0 0 47.071 39.954"><defs><style>.a{fill:#006ab3;}</style></defs><g transform="translate(0 -1.89)"><path class="a" d="M42.549,19.239v-2.8a3.469,3.469,0,0,0,1.608-2.775,3.339,3.339,0,0,0-3.323-3.41,3.389,3.389,0,0,0-1.9,6.185v2.8H15.089L14.47,4.763H13.05l-.621,14.475H9.676L1.278,1.89,0,2.749l6.778,16.49H.951v3.613h46.12V19.239Z" transform="translate(0 0)"/><rect class="a" width="25.323" height="10.853" transform="translate(10.895 24.661)"/><rect class="a" width="8.14" height="10.853" transform="translate(0.95 24.661)"/><path class="a" d="M.5,23.747V25.23H46.625V20.708H.5Z" transform="translate(0.446 16.614)"/><rect class="a" width="8.14" height="10.853" transform="translate(38.932 24.661)"/></g></svg>