<svg xmlns="http://www.w3.org/2000/svg" width="28.087" height="23.84" viewBox="0 0 28.087 23.84"><defs><style>.a{fill:#7d7d7d;}</style></defs><g transform="translate(0 -1.89)"><path class="a" d="M25.388,12.242V10.571a2.07,2.07,0,0,0,.959-1.656A1.992,1.992,0,0,0,24.364,6.88a2.022,2.022,0,0,0-1.132,3.691v1.671H9L8.634,3.6H7.787l-.371,8.637H5.773L.763,1.89,0,2.4l4.044,9.839H.567V14.4H28.086V12.242Z"/><rect class="a" width="15.11" height="6.476" transform="translate(6.501 15.477)"/><rect class="a" width="4.857" height="6.476" transform="translate(0.567 15.477)"/><path class="a" d="M.5,22.522v.885H28.024v-2.7H.5Z" transform="translate(0.062 2.323)"/><rect class="a" width="4.857" height="6.476" transform="translate(23.23 15.477)"/></g></svg>