<svg xmlns="http://www.w3.org/2000/svg" width="34.002" height="41.519" viewBox="0 0 34.002 41.519"><defs><style>.ib-1{fill:#006ab3;}.b,.d{fill:#fff;}.ib-3,.d{stroke:none;}</style></defs><g transform="translate(2 2)"><g class="ib-1" transform="translate(11101.001 4509.001)"><path class="ib-3" d="M -11070.005859375 -4471.30517578125 L -11071.54296875 -4472.28515625 L -11082.255859375 -4479.11572265625 L -11101.0009765625 -4479.11572265625 L -11102.0009765625 -4479.11572265625 L -11102.0009765625 -4480.11572265625 L -11102.0009765625 -4509.0009765625 L -11102.0009765625 -4510.0009765625 L -11101.0009765625 -4510.0009765625 L -11070.9990234375 -4510.0009765625 L -11069.9990234375 -4510.0009765625 L -11069.9990234375 -4509.0009765625 L -11069.9990234375 -4480.11572265625 L -11069.9990234375 -4479.11572265625 L -11070.001953125 -4479.11572265625 L -11070.0048828125 -4473.1279296875 L -11070.005859375 -4471.30517578125 Z"/><path class="d" d="M -11071.0048828125 -4473.12841796875 L -11071.001953125 -4480.11572265625 L -11070.9990234375 -4480.11572265625 L -11070.9990234375 -4509.0009765625 L -11101.0009765625 -4509.0009765625 L -11101.0009765625 -4480.11572265625 L -11081.9638671875 -4480.11572265625 L -11071.0048828125 -4473.12841796875 M -11069.0068359375 -4469.482421875 L -11072.080078125 -4471.44189453125 L -11082.546875 -4478.11572265625 L -11101.0009765625 -4478.11572265625 L -11103.0009765625 -4478.11572265625 L -11103.0009765625 -4480.11572265625 L -11103.0009765625 -4509.0009765625 L -11103.0009765625 -4511.0009765625 L -11101.0009765625 -4511.0009765625 L -11070.9990234375 -4511.0009765625 L -11068.9990234375 -4511.0009765625 L -11068.9990234375 -4509.0009765625 L -11068.9990234375 -4480.11572265625 L -11068.9990234375 -4478.11572265625 L -11069.0029296875 -4478.11572265625 L -11069.0048828125 -4473.12744140625 L -11069.0068359375 -4469.482421875 Z"/></g><g transform="translate(11.901 7.001)"><g transform="translate(0 0)"><ellipse class="b" cx="1.78" cy="1.847" rx="1.78" ry="1.847" transform="translate(1.385)"/><path class="b" d="M206.081,210.516h-6.329v-2.689h1.356V202.45h-1.356v-2.688h4.973v8.065h1.356v2.689Z" transform="translate(-199.752 -195.144)"/></g></g></g></svg>
