<svg xmlns="http://www.w3.org/2000/svg" width="24" height="21.214" viewBox="0 0 24 21.214"><defs><style>.vi-1{fill:#4b4b4b;}</style></defs><path class="vi-1" d="M207.738,281.94l3.122-3.122a5.519,5.519,0,0,1-.445-2.181,5.4,5.4,0,0,1,5.455-5.455,5.54,5.54,0,0,1,2.181.445l2.348-2.348a12.884,12.884,0,0,0-16.529,7.358A12.771,12.771,0,0,0,207.738,281.94Z" transform="translate(-203.87 -266.737)"/><path class="vi-1" d="M212.6,276.637a3.365,3.365,0,0,0,.039.4l3.639-3.639a3.362,3.362,0,0,0-.4-.039A3.214,3.214,0,0,0,212.6,276.637Z" transform="translate(-203.87 -266.737)"/><path class="vi-1" d="M224,271.339l3.187-3.187-1.414-1.415-3.962,3.962-2.065,2.065h0l-9.81,9.811-.517.516h0l-3.445,3.445,1.414,1.415,3.957-3.957a12.881,12.881,0,0,0,16.529-7.357A12.741,12.741,0,0,0,224,271.339Zm-8.126,10.752a5.541,5.541,0,0,1-2.182-.444l1.776-1.776a3.583,3.583,0,0,0,.406.039,3.215,3.215,0,0,0,3.272-3.273,3.382,3.382,0,0,0-.039-.406l1.777-1.776a5.541,5.541,0,0,1,.444,2.182A5.4,5.4,0,0,1,215.87,282.091Z" transform="translate(-203.87 -266.737)"/></svg>