<svg xmlns="http://www.w3.org/2000/svg" width="212.883" height="166" viewBox="0 0 212.883 166"><defs><style>.a{fill:#006ab3;}.b,.c{fill:#fff;}.c,.d,.g{stroke:#006ab3;}.d,.g,.i{fill:none;}.e{opacity:0.08;}.f{opacity:0.16;}.g{stroke-width:1.25px;}.h{stroke:none;}</style></defs><g transform="translate(91 61)"><path class="a" d="M36.873,29.225,20.713,1.219A2.432,2.432,0,0,0,17.394.326a2.339,2.339,0,0,0-.893.893L.326,29.225a2.438,2.438,0,0,0,.908,3.333,2.55,2.55,0,0,0,1.19.327H34.76A2.445,2.445,0,0,0,37.2,30.43,2.4,2.4,0,0,0,36.873,29.225Z" transform="translate(-0.003 -0.002)"/><path class="b" d="M13.1,6.61a1.861,1.861,0,0,1,1.845,1.875v.03L14.629,19.14a1.5,1.5,0,0,1-3.006,0L11.34,8.515a1.846,1.846,0,0,1,1.786-1.9H13.1Z" transform="translate(5.531 3.223)"/><path class="b" d="M13.13,20.8a1.92,1.92,0,1,1,1.92-1.92A1.924,1.924,0,0,1,13.13,20.8Z" transform="translate(5.468 8.275)"/></g><g class="c" transform="translate(10 135)"><circle class="h" cx="4" cy="4" r="4"/><circle class="i" cx="4" cy="4" r="3.5"/></g><g transform="translate(-414 -342)"><line class="d" y2="10" transform="translate(586.5 347.5)"/><line class="d" y2="10" transform="translate(591.5 352.5) rotate(90)"/></g><g class="e" transform="translate(-217 -408)"><path class="a" d="M153.064,143.375V33H0V143.375H56.978l-3.643,13.99H43.946v8.969h65.172v-8.969H99.729l-3.643-13.99ZM144.1,41.969v70.189H8.969V41.969ZM8.969,121.126H144.1v13.28H8.969Zm81.493,36.239H62.6l3.643-13.99H86.818Z" transform="translate(250 407.667)"/><path class="a" d="M299.079,91.093h4.134V88.934h3.354V84.8h-3.354V82.641h-4.134V84.8H284.333v4.134h14.746Z" transform="translate(79.667 372.866)"/><path class="a" d="M289.248,158.72h4.134v-2.159h13.184v-4.134H293.383v-2.159h-4.134v2.159h-4.915v4.134h4.915Z" transform="translate(79.667 314.559)"/><path class="a" d="M298.436,226.348h4.134v-2.159h4v-4.134h-4V217.9h-4.134v2.159h-14.1v4.134h14.1Z" transform="translate(79.667 256.251)"/></g><circle class="b" cx="37.5" cy="37.5" r="37.5"/><g class="f" transform="translate(15.804 15.804)"><path class="a" d="M7.743,34.044a3.589,3.589,0,0,0-1.734.443A20.3,20.3,0,0,1,26.052,2.122.86.86,0,0,0,26.392.436,22.176,22.176,0,0,0,22.011,0,22.011,22.011,0,0,0,4.737,35.652a3.613,3.613,0,1,0,3.006-1.608ZM9.08,38.992a1.891,1.891,0,1,1,.554-1.337A1.878,1.878,0,0,1,9.08,38.992Z" transform="translate(0 0)"/><path class="a" d="M219.789,37.664a3.6,3.6,0,1,0-1.271,1.166A20.3,20.3,0,0,1,198.513,71.2a.86.86,0,0,0-.338,1.686,22.189,22.189,0,0,0,4.34.428,22.011,22.011,0,0,0,17.274-35.653ZM215.446,37a1.892,1.892,0,1,1,1.337.554A1.879,1.879,0,0,1,215.446,37Z" transform="translate(-180.505 -29.295)"/></g><path class="g" d="M12,6,6,0,0,6" transform="translate(40.999 31) rotate(90)"/><path class="g" d="M12,6,6,0,0,6" transform="translate(211.999 110) rotate(90)"/></svg>