<svg xmlns="http://www.w3.org/2000/svg" width="67.883" height="140.2" viewBox="0 0 67.883 140.2"><defs><style>.a{fill:#d2d2d2;}</style></defs><g transform="translate(-6.156 0.6)"><g transform="translate(6.157 -0.6)"><g transform="translate(33.847 39.722)"><circle class="a" cx="1.706" cy="1.706" r="1.706"/></g><g transform="translate(13.038 16.487)"><rect class="a" width="41.238" height="65.95"/></g><g transform="translate(13.04 12.394)"><path class="a" d="M45.876,72.293H8.773V2.21h37.1Zm-37.1,0h37.1V2.21H8.773Z" transform="translate(-8.773 -2.21)"/></g><g transform="translate(13.038 12.394)"><rect class="a" width="41.238" height="4.131"/></g><path class="a" d="M6.448,8.263l.606-4.131H13L14.331,0H48.254l1.023,4.131H73.459l.872,4.131Z" transform="translate(-6.448)"/><g transform="translate(29.526 82.475)"><rect class="a" width="8.263" height="57.725"/></g><g transform="translate(21.263 94.831)"><rect class="a" width="4.131" height="45.331"/></g><g transform="translate(13.038 94.831)"><rect class="a" width="4.131" height="45.331"/></g><g transform="translate(50.145 94.831)"><rect class="a" width="4.131" height="45.331"/></g><g transform="translate(41.882 94.831)"><rect class="a" width="4.131" height="45.331"/></g><g transform="translate(13.038 90.7)"><rect class="a" width="41.238" height="4.131"/></g></g></g></svg>