<svg xmlns="http://www.w3.org/2000/svg" width="21.997" height="15.467" viewBox="0 0 21.997 15.467"><defs><style>.mail-blue{fill:#006ab3;}</style></defs><g transform="translate(-1131 -457)"><g transform="translate(1131 457)"><path class="mail-blue" d="M37.51,279.1a2.039,2.039,0,0,1-2.825,0l-1.842-1.849-6.617,6.639a1.915,1.915,0,0,0,.807.182h18.13a1.913,1.913,0,0,0,.806-.182l-6.617-6.639Z" transform="translate(-25.099 -268.605)"/><path class="mail-blue" d="M33.3,83.277h0l2.3,2.307a.774.774,0,0,0,1,0l2.3-2.306v0h0l7.071-7.094A1.913,1.913,0,0,0,45.165,76H27.035a1.914,1.914,0,0,0-.807.182L33.3,83.276Z" transform="translate(-25.101 -76)"/><path class="mail-blue" d="M.206,101.212a1.91,1.91,0,0,0-.206.85v11.6a1.909,1.909,0,0,0,.206.85l6.628-6.65Z" transform="translate(0 -100.129)"/><path class="mail-blue" d="M359.561,101.21l-6.628,6.65,6.628,6.65a1.909,1.909,0,0,0,.206-.85v-11.6A1.909,1.909,0,0,0,359.561,101.21Z" transform="translate(-337.77 -100.127)"/></g></g></svg>
