<svg xmlns="http://www.w3.org/2000/svg" width="22" height="22" viewBox="0 0 22 22"><defs><style>.a{fill:#4b4b4b;}.b{fill:#fff;stroke:rgba(0,0,0,0);}</style></defs><circle class="a" cx="11" cy="11" r="11"/><path class="b" d="M-2705.923-5591.482a.366.366,0,0,1-.3-.318l-.664-5.48-5.805-.974a.365.365,0,0,1-.3-.313.368.368,0,0,1,.211-.381l13.112-6.018a.368.368,0,0,1,.417.077.368.368,0,0,1,.065.419l-6.34,12.79a.364.364,0,0,1-.328.2A.3.3,0,0,1-2705.923-5591.482Z" transform="translate(2715.952 5609.767)"/></svg>